<?xml version="1.0" encoding="utf-8"?>
<!-- Generator: Adobe Illustrator 23.0.1, SVG Export Plug-In . SVG Version: 6.00 Build 0)  -->
<svg version="1.1" id="Layer_1" xmlns="http://www.w3.org/2000/svg" xmlns:xlink="http://www.w3.org/1999/xlink" x="0px" y="0px"
	 viewBox="0 0 100 100" style="enable-background:new 0 0 100 100;" xml:space="preserve">
<path d="M93,5H7C5.9,5,5,5.9,5,7v86c0,1.1,0.9,2,2,2h86c1.1,0,2-0.9,2-2V7C95,5.9,94.1,5,93,5z M91,91H9V9h82V91z M25.59,52.41
	c-0.78-0.78-0.78-2.05,0-2.83c0.78-0.78,2.05-0.78,2.83,0L43,64.17l32.59-32.59c0.78-0.78,2.05-0.78,2.83,0
	c0.78,0.78,0.78,2.05,0,2.83l-34,34C44.02,68.8,43.51,69,43,69s-1.02-0.2-1.41-0.59L25.59,52.41z"/>
</svg>
