<?xml version="1.0" encoding="utf-8"?>
<!-- Generator: Adobe Illustrator 23.0.1, SVG Export Plug-In . SVG Version: 6.00 Build 0)  -->
<svg version="1.1" id="Layer_1" xmlns="http://www.w3.org/2000/svg" xmlns:xlink="http://www.w3.org/1999/xlink" x="0px" y="0px"
	 viewBox="0 0 100 100" style="enable-background:new 0 0 100 100;" xml:space="preserve">
<path d="M93,5H7C5.9,5,5,5.9,5,7v86c0,1.1,0.9,2,2,2h86c1.1,0,2-0.9,2-2V7C95,5.9,94.1,5,93,5z M91,91H9V9h82V91z M28.59,68.59
	L47.17,50L28.59,31.41c-0.78-0.78-0.78-2.05,0-2.83c0.78-0.78,2.05-0.78,2.83,0L50,47.17l18.59-18.59c0.78-0.78,2.05-0.78,2.83,0
	c0.78,0.78,0.78,2.05,0,2.83L52.83,50l18.59,18.59c0.78,0.78,0.78,2.05,0,2.83C71.02,71.8,70.51,72,70,72s-1.02-0.2-1.41-0.59
	L50,52.83L31.41,71.41C31.02,71.8,30.51,72,30,72s-1.02-0.2-1.41-0.59C27.8,70.63,27.8,69.37,28.59,68.59z"/>
</svg>
